<svg id="Livello_1" data-name="Livello 1" xmlns="http://www.w3.org/2000/svg" viewBox="0 0 465.46 357.66"><defs><style>.cls-1{font-size:54.68px;fill:#727272;font-family:SFCompactDisplay-Regular, SF Compact Display;}.cls-2{letter-spacing:0em;}.cls-3{letter-spacing:0em;}.cls-4{letter-spacing:0em;}.cls-5{letter-spacing:0.02em;}.cls-6{fill:#de6137;}</style></defs><title>logo-def-2</title><text class="cls-1" transform="translate(0 328.56)">Sc<tspan class="cls-2" x="58.66" y="0">r</tspan><tspan class="cls-3" x="77.13" y="0">eenNeu</tspan><tspan class="cls-4" x="261.54" y="0">r</tspan><tspan x="280.01" y="0">oPha</tspan><tspan class="cls-5" x="399.65" y="0">r</tspan><tspan x="419.16" y="0">m</tspan></text><circle class="cls-6" cx="388.54" cy="62.32" r="32.65"/><circle class="cls-6" cx="175.6" cy="30.42" r="30.42"/><circle class="cls-6" cx="88.05" cy="207" r="43.77"/><circle class="cls-6" cx="225.31" cy="163.23" r="60.84"/><circle class="cls-6" cx="370.5" cy="199.52" r="25.11"/><circle class="cls-6" cx="263.89" cy="259.68" r="16.32"/><path class="cls-6" d="M696.58,604.32a18.45,18.45,0,0,0,1.48,1.49,25.22,25.22,0,0,0,4.46,3,27.21,27.21,0,0,1,3.93,2.63,12,12,0,0,1,3.49,4.79,19.91,19.91,0,0,1,.66,5.18c.08,1.38.09,2.36.11,4.67,0,4.07,0,5.07,0,6a90.39,90.39,0,0,0,.67,9.4c.56,4.87,1.07,7.12,0,10.39-1.31,4-3.87,6.16-3,7.42s4,.76,5.94,0c1.59-.63,3-1.47,5.93-4.46,3.59-3.58,6.54-6.54,5.94-7.42-.85-1.23-7.27,3.79-10.39,1.49-2.28-1.68-1.75-6.5-1.48-8.9a16.17,16.17,0,0,1,.3-1.84,110,110,0,0,0,2.66-17.45c.28-6.31-.78-8-1.48-8.91a9.36,9.36,0,0,0-4.45-3c-2-.51-4.13-.11-7.42-1.48h0c-2.5-.83-5.68-2.26-5.94-4.45-.22-2,2.06-3.41,1.49-4.45s-3-.2-7.42,0-7.35-.39-7.42,0C684.59,599.06,693.09,600.51,696.58,604.32Z" transform="translate(-517.27 -542)"/><path class="cls-6" d="M799,662.19c-12.07,3.14-22.55-1.1-23.74,1.49s8.79,6.26,13.35,17.8c1.56,3.94,2,7.46,3,7.42,1.64-.06,1.46-9.51,7.42-19.29,1.64-2.69,2.83-3.91,4.45-4.45,3.52-1.18,5.56,2,10.39,1.49,3.51-.39,3.54-2.21,7.42-3,4.09-.8,5.34,1,10.38,1.48a27.5,27.5,0,0,0,14.84-3c3.8-1.81,7.67-3.65,8.9-7.42s-1.43-5.13-1.48-10.38,2.55-11.92,7.42-14.84c3.15-1.89,3.88-.21,13.36-3a46.94,46.94,0,0,0,7.41-3c3.68-1.83,5.52-2.77,5.94-4.45.72-2.87-2.74-5.91-4.45-7.42s-5-3.78-5.94-3,2.42,4.37,1.49,8.91a8.46,8.46,0,0,1-4.45,5.93c-3,1.3-4.66-.85-8.91,0-1.83.37-3.2,1.24-5.93,3-5,3.15-7.45,4.72-8.91,7.42-1.63,3-1.57,6.23-1.48,11.87.07,4.35.63,4.75,0,5.94-2.38,4.44-12.84,3.44-17.81,3-10.6-1-13.43-3.9-17.8-1.48-2.71,1.5-3,3.35-7.42,5.94A29.94,29.94,0,0,1,799,662.19Z" transform="translate(-517.27 -542)"/><path class="cls-6" d="M807.87,712.65c2.65-1.73,6.24-2.62,13.36-4.46,11.09-2.87,12.69-2,13.35-1.48,2.84,2,1.37,5.58,4.45,7.42,3.23,1.92,6.86-.73,8.91,1.48,1.3,1.41.19,2.89,1.48,4.45,1.7,2.08,4.61.65,8.9,1.49,2.72.53,2.63,1.32,11.87,7.42,5.46,3.6,7.71,4.79,7.42,5.93s-3.19,1.49-4.45,1.49c-.88,0-3.55.05-4.45-1.49-.57-1,.08-1.69,0-3-.22-3.44-5.51-7.13-10.39-7.42-2.1-.13-3,.44-5.93,0a11.9,11.9,0,0,1-4.45-1.49c-1.16-.68-2.53-1.49-3-3s.5-2.27,0-3c-.93-1.28-4.26,1.25-7.42,0-2.42-1-1.91-3-4.45-4.45-1.76-1-3.12-.61-8.91,0-8.9.93-9.22.71-10.38,1.48-4,2.66-2.23,6.65-5.94,8.9-3,1.86-4.75-.57-13.35,0-4.36.29-6.79,1.1-7.42,0s1.34-2.4,3-5.93c2.58-5.6,1.13-9.77,3-10.39,1.46-.49,3.55,1.74,4.45,3,2.53,3.44,1.36,6.66,3,7.42S804.1,715.1,807.87,712.65Z" transform="translate(-517.27 -542)"/></svg>